<svg width="68" height="38" viewBox="0 0 68 38" fill="none" xmlns="http://www.w3.org/2000/svg">
<g clip-path="url(#clip0_4901_329)">
<path d="M0 19V38H9.45663C18.2552 38 21.3505 37.8338 22.5448 37.3113C22.8129 37.1687 23.471 36.955 24.0072 36.8125C26.5419 36.0763 29.5398 33.8913 31.124 31.635C32.3914 29.83 33.7319 26.5288 34.1462 24.225C34.5606 21.9212 34.5606 16.055 34.1462 13.775C33.8538 12.1362 32.9276 9.33375 32.2939 8.19375C30.466 4.7975 27.6387 2.47 23.7147 1.0925C20.9849 0.118752 19.4007 0 9.45663 0H0V19ZM21.5455 9.80875C24.0315 10.9487 25.9326 12.8962 26.9319 15.2475C27.5412 16.6963 27.6631 17.29 27.6631 19C27.6631 21.7787 26.7857 23.9163 24.7871 25.935C20.0344 30.685 12.4301 30.0912 8.57921 24.6525C7.38495 22.9663 6.97061 21.5175 6.97061 19C6.97061 14.82 8.84731 11.8038 12.552 9.975C14.5262 9.00125 15.6229 8.7875 17.8652 8.8825C19.4007 8.95375 20.0832 9.14375 21.5455 9.80875Z" fill="white"/>
<path d="M44.2366 11.8038C42.1649 12.35 40.6294 13.4662 39.4595 15.2475C38.6552 16.4587 38.6309 16.5538 38.6309 19.0237C38.6309 21.5413 38.6309 21.5413 39.557 22.895C40.6538 24.51 42.5792 25.7925 44.4803 26.1963C48.1119 26.9325 52.2065 24.51 53.157 21.0425C53.547 19.6175 53.3033 16.9338 52.6696 15.7225C51.9871 14.4162 50.5735 13.0863 49.1599 12.3975C48.0387 11.8512 45.2846 11.5188 44.2366 11.8038Z" fill="white"/>
<path d="M61.6631 14.0125C59.104 14.4875 57.5198 16.3875 57.5198 19C57.5198 22.04 59.6158 24.035 62.7843 24.035C64.6854 24.0588 66.0746 23.3463 67.147 21.8975C67.8051 20.9475 67.8782 20.6863 67.8782 19C67.8782 17.3138 67.8051 17.0525 67.147 16.1025C65.9284 14.44 63.7592 13.6088 61.6631 14.0125Z" fill="white"/>
</g>
<defs>
<clipPath id="clip0_4901_329">
<rect width="68" height="38" fill="white"/>
</clipPath>
</defs>
</svg>
